<svg width="28" height="28" viewBox="0 0 28 28" fill="none" xmlns="http://www.w3.org/2000/svg">
<path d="M22.1667 21.875H5.83341C5.29288 21.8719 4.77535 21.6559 4.39312 21.2736C4.0109 20.8914 3.79481 20.3739 3.79175 19.8333V8.16667C3.79481 7.62613 4.0109 7.1086 4.39312 6.72637C4.77535 6.34415 5.29288 6.12806 5.83341 6.125H22.1667C22.7073 6.12806 23.2248 6.34415 23.607 6.72637C23.9893 7.1086 24.2054 7.62613 24.2084 8.16667V19.8333C24.2054 20.3739 23.9893 20.8914 23.607 21.2736C23.2248 21.6559 22.7073 21.8719 22.1667 21.875ZM5.83341 7.875C5.75606 7.875 5.68187 7.90573 5.62717 7.96043C5.57248 8.01513 5.54175 8.08931 5.54175 8.16667V19.8333C5.54175 19.9107 5.57248 19.9849 5.62717 20.0396C5.68187 20.0943 5.75606 20.125 5.83341 20.125H22.1667C22.2441 20.125 22.3183 20.0943 22.373 20.0396C22.4277 19.9849 22.4584 19.9107 22.4584 19.8333V8.16667C22.4584 8.08931 22.4277 8.01513 22.373 7.96043C22.3183 7.90573 22.2441 7.875 22.1667 7.875H5.83341Z" fill="#0A81FF"/>
<path d="M10.5 13.7077C10.0385 13.7077 9.58738 13.5708 9.20367 13.3144C8.81995 13.0581 8.52089 12.6936 8.34428 12.2673C8.16768 11.8409 8.12147 11.3718 8.2115 10.9191C8.30153 10.4665 8.52376 10.0508 8.85008 9.72443C9.17641 9.39811 9.59217 9.17588 10.0448 9.08585C10.4974 8.99582 10.9666 9.04203 11.3929 9.21863C11.8193 9.39524 12.1837 9.69431 12.4401 10.078C12.6965 10.4617 12.8333 10.9129 12.8333 11.3744C12.8333 11.9932 12.5875 12.5867 12.1499 13.0243C11.7123 13.4619 11.1188 13.7077 10.5 13.7077ZM10.5 10.791C10.3846 10.791 10.2718 10.8252 10.1759 10.8893C10.08 10.9534 10.0052 11.0445 9.96107 11.1511C9.91692 11.2577 9.90537 11.375 9.92788 11.4882C9.95038 11.6013 10.0059 11.7052 10.0875 11.7868C10.1691 11.8684 10.273 11.924 10.3862 11.9465C10.4994 11.969 10.6166 11.9574 10.7232 11.9133C10.8298 11.8691 10.9209 11.7944 10.985 11.6984C11.0491 11.6025 11.0833 11.4897 11.0833 11.3744C11.0833 11.2196 11.0219 11.0713 10.9125 10.9619C10.8031 10.8525 10.6547 10.791 10.5 10.791ZM14 18.3743C13.7689 18.3713 13.5481 18.2782 13.3846 18.1147C13.2212 17.9513 13.128 17.7305 13.125 17.4993C13.125 16.706 12.9267 16.041 10.5 16.041C8.07333 16.041 7.875 16.706 7.875 17.4993C7.875 17.7314 7.78281 17.954 7.61872 18.1181C7.45462 18.2822 7.23206 18.3743 7 18.3743C6.76794 18.3743 6.54538 18.2822 6.38128 18.1181C6.21719 17.954 6.125 17.7314 6.125 17.4993C6.125 14.291 9.415 14.291 10.5 14.291C11.585 14.291 14.875 14.291 14.875 17.4993C14.872 17.7305 14.7788 17.9513 14.6154 18.1147C14.4519 18.2782 14.2311 18.3713 14 18.3743ZM19.8333 12.541H16.3333C16.1013 12.541 15.8787 12.4488 15.7146 12.2847C15.5505 12.1206 15.4583 11.8981 15.4583 11.666C15.4583 11.434 15.5505 11.2114 15.7146 11.0473C15.8787 10.8832 16.1013 10.791 16.3333 10.791H19.8333C20.0654 10.791 20.288 10.8832 20.4521 11.0473C20.6161 11.2114 20.7083 11.434 20.7083 11.666C20.7083 11.8981 20.6161 12.1206 20.4521 12.2847C20.288 12.4488 20.0654 12.541 19.8333 12.541ZM18.6667 16.041H16.3333C16.1013 16.041 15.8787 15.9488 15.7146 15.7847C15.5505 15.6206 15.4583 15.3981 15.4583 15.166C15.4583 14.934 15.5505 14.7114 15.7146 14.5473C15.8787 14.3832 16.1013 14.291 16.3333 14.291H18.6667C18.8987 14.291 19.1213 14.3832 19.2854 14.5473C19.4495 14.7114 19.5417 14.934 19.5417 15.166C19.5417 15.3981 19.4495 15.6206 19.2854 15.7847C19.1213 15.9488 18.8987 16.041 18.6667 16.041Z" fill="#0A81FF"/>
</svg>
