<svg width="25" height="26" viewBox="0 0 25 26" fill="none" xmlns="http://www.w3.org/2000/svg">
<path d="M3.75017 22.7077H8.12517V13.9577H16.8752V22.7077H21.2502V9.58268L12.5002 3.02018L3.75017 9.58268V22.7077ZM3.75017 25.6243C2.94808 25.6243 2.26121 25.3385 1.68954 24.7669C1.11787 24.1952 0.832526 23.5088 0.833499 22.7077V9.58268C0.833499 9.12088 0.93704 8.68338 1.14412 8.27018C1.35121 7.85699 1.63655 7.51671 2.00017 7.24935L10.7502 0.686849C11.0175 0.492405 11.297 0.346571 11.5887 0.249349C11.8804 0.152127 12.1842 0.103516 12.5002 0.103516C12.8161 0.103516 13.12 0.152127 13.4116 0.249349C13.7033 0.346571 13.9828 0.492405 14.2502 0.686849L23.0002 7.24935C23.3648 7.51671 23.6506 7.85699 23.8577 8.27018C24.0647 8.68338 24.1678 9.12088 24.1668 9.58268V22.7077C24.1668 23.5098 23.881 24.1966 23.3093 24.7683C22.7377 25.34 22.0513 25.6253 21.2502 25.6243H13.9585V16.8743H11.0418V25.6243H3.75017Z" fill="white"/>
</svg>
