<svg width="201" height="134" viewBox="0 0 201 134" fill="none" xmlns="http://www.w3.org/2000/svg">
<path fill-rule="evenodd" clip-rule="evenodd" d="M102.869 64.6316C104.177 65.9398 104.177 68.0609 102.869 69.3692C85.7757 86.4623 61.5491 92.1074 39.77 86.2832C37.9827 85.8052 36.9212 83.9688 37.3992 82.1814C37.8772 80.3941 39.7136 79.3326 41.501 79.8106C61.0609 85.0414 82.7963 79.9665 98.1312 64.6316C99.4394 63.3233 101.561 63.3233 102.869 64.6316Z" fill="white"/>
<path fill-rule="evenodd" clip-rule="evenodd" d="M161.168 71.1066C145.465 64.4521 126.629 67.536 113.842 80.339L113.837 80.3437C106.486 87.6738 94.4685 87.7829 87.093 80.4074C86.5562 79.8707 86.0199 79.275 85.5302 78.6364C84.4045 77.1681 84.6823 75.0652 86.1505 73.9396C87.6188 72.8139 89.7217 73.0916 90.8474 74.5599C91.1282 74.9262 91.4628 75.3021 91.8306 75.6698C96.5479 80.3871 104.327 80.363 109.104 75.6018C123.887 60.8029 145.651 57.2546 163.782 64.9377C165.486 65.6595 166.281 67.6257 165.56 69.3292C164.838 71.0327 162.871 71.8285 161.168 71.1066Z" fill="white"/>
<path fill-rule="evenodd" clip-rule="evenodd" d="M158.375 87.0194C147.784 80.7603 133.905 82.184 124.795 91.2947L124.793 91.2963C111.385 104.686 89.5505 104.774 76.1384 91.3617C74.0421 89.2654 72.2816 86.9666 70.8383 84.5427C69.8918 82.953 70.4132 80.897 72.0029 79.9505C73.5926 79.0039 75.6486 79.5253 76.5951 81.115C77.7649 83.0796 79.1869 84.9349 80.876 86.6241C91.6504 97.3985 109.244 97.3532 120.057 86.5571C120.057 86.5568 120.057 86.5565 120.058 86.5563C131.382 75.2327 148.624 73.4741 161.784 81.2514C163.377 82.1927 163.905 84.247 162.964 85.8398C162.022 87.4326 159.968 87.9607 158.375 87.0194Z" fill="white"/>
<path fill-rule="evenodd" clip-rule="evenodd" d="M151.773 101.233C147.027 97.536 140.134 97.8644 135.749 102.249C134.441 103.557 132.32 103.557 131.011 102.249C129.703 100.941 129.703 98.8197 131.011 97.5115C137.816 90.7071 148.51 90.198 155.891 95.9477C157.35 97.0848 157.612 99.1897 156.475 100.649C155.338 102.109 153.233 102.37 151.773 101.233Z" fill="white"/>
<path fill-rule="evenodd" clip-rule="evenodd" d="M56.2895 82.1428C57.9914 81.4172 59.9593 82.2087 60.6849 83.9106C62.8001 88.872 65.8619 93.5191 69.9216 97.5788C86.7641 114.421 114.156 114.367 131.011 97.5118C132.32 96.2036 134.441 96.2036 135.749 97.5118C137.057 98.8201 137.057 100.941 135.749 102.249C116.29 121.708 84.6555 121.788 65.184 102.316C60.5002 97.6327 56.9625 92.2633 54.5217 86.5382C53.7961 84.8363 54.5876 82.8684 56.2895 82.1428Z" fill="white"/>
<path fill-rule="evenodd" clip-rule="evenodd" d="M87.1767 53.6769C94.5317 46.3219 106.468 46.3219 113.823 53.6769C114.36 54.2136 114.896 54.8093 115.386 55.448C116.512 56.9163 116.234 59.0191 114.766 60.1448C113.297 61.2705 111.195 60.9927 110.069 59.5245C109.788 59.1581 109.453 58.7823 109.086 58.4145C104.347 53.676 96.6528 53.676 91.9143 58.4145C77.1315 73.1973 55.3661 76.7463 37.2347 69.0629C35.5312 68.3411 34.7354 66.3749 35.4573 64.6714C36.1792 62.9679 38.1454 62.1721 39.8489 62.894C55.5525 69.5486 74.389 66.4646 87.1767 53.6769Z" fill="white"/>
<path fill-rule="evenodd" clip-rule="evenodd" d="M76.2221 42.7222C89.6239 29.3205 111.376 29.3205 124.778 42.7222C126.874 44.8185 128.635 47.1173 130.078 49.5412C131.024 51.1309 130.503 53.1869 128.913 54.1334C127.324 55.08 125.268 54.5586 124.321 52.9689C123.151 51.0043 121.729 49.149 120.04 47.4598C109.255 36.6746 91.745 36.6746 80.9598 47.4598C69.6354 58.7842 52.3929 60.543 39.2326 52.7655C37.6398 51.8242 37.1116 49.7699 38.0529 48.1771C38.9942 46.5843 41.0485 46.0562 42.6413 46.9975C53.2325 53.2566 67.1115 51.8329 76.2221 42.7222Z" fill="white"/>
<path fill-rule="evenodd" clip-rule="evenodd" d="M65.2677 31.7679C84.7172 12.3017 116.268 12.3036 135.732 31.7679C140.412 36.4477 143.97 41.8179 146.398 47.5543C147.119 49.2582 146.322 51.224 144.619 51.9451C142.915 52.6661 140.949 51.8694 140.228 50.1656C138.133 45.2155 135.058 40.5692 130.995 36.5055C114.145 19.6562 86.8376 19.6577 70.0064 36.5044L70.0053 36.5055C63.1989 43.3119 52.5039 43.8174 45.1083 38.0517C43.6492 36.9141 43.3885 34.8091 44.526 33.35C45.6636 31.8908 47.7686 31.6302 49.2277 32.7677C53.9926 36.4825 60.8851 36.1505 65.2677 31.7679Z" fill="white"/>
<path fill-rule="evenodd" clip-rule="evenodd" d="M98.1326 64.63C115.243 47.5372 139.451 41.9111 161.244 47.7164C163.032 48.1927 164.095 50.0281 163.619 51.8159C163.142 53.6037 161.307 54.6669 159.519 54.1907C139.939 48.9746 118.219 54.0349 102.868 69.3701C101.559 70.6777 99.4377 70.6766 98.1301 69.3676C96.8225 68.0587 96.8236 65.9376 98.1326 64.63Z" fill="white"/>
<path fill-rule="evenodd" clip-rule="evenodd" d="M100.5 8.3748C68.1224 8.3748 41.875 34.6221 41.875 66.9998C41.875 99.3775 68.1224 125.625 100.5 125.625C132.878 125.625 159.125 99.3775 159.125 66.9998C159.125 34.6221 132.878 8.3748 100.5 8.3748ZM35.175 66.9998C35.175 30.9218 64.422 1.6748 100.5 1.6748C136.578 1.6748 165.825 30.9218 165.825 66.9998C165.825 103.078 136.578 132.325 100.5 132.325C64.422 132.325 35.175 103.078 35.175 66.9998Z" fill="white"/>
</svg>
