<svg width="24" height="24" viewBox="0 0 24 24" fill="none" xmlns="http://www.w3.org/2000/svg">
<path d="M12 20C9.76667 20 7.875 19.225 6.325 17.675C4.775 16.125 4 14.2333 4 12C4 9.76667 4.775 7.875 6.325 6.325C7.875 4.775 9.76667 4 12 4C14.2333 4 16.125 4.775 17.675 6.325C19.225 7.875 20 9.76667 20 12C20 14.2333 19.225 16.125 17.675 17.675C16.125 19.225 14.2333 20 12 20ZM12 18C13.6667 18 15.0833 17.4167 16.25 16.25C17.4167 15.0833 18 13.6667 18 12C18 11.7167 17.979 11.4377 17.937 11.163C17.895 10.8883 17.8327 10.6173 17.75 10.35C17.5 10.4 17.25 10.4377 17 10.463C16.75 10.4883 16.5 10.5007 16.25 10.5C15.2 10.5 14.2 10.3 13.25 9.9C12.3 9.5 11.45 8.91667 10.7 8.15C10.2333 9.1 9.59167 9.925 8.775 10.625C7.95833 11.325 7.03334 11.8333 6 12.15C6.05 13.7833 6.654 15.1667 7.812 16.3C8.97 17.4333 10.366 18 12 18ZM9.5 14C9.21667 14 8.979 13.9043 8.787 13.713C8.595 13.5217 8.49934 13.284 8.5 13C8.5 12.7167 8.596 12.479 8.788 12.287C8.98 12.095 9.21734 11.9993 9.5 12C9.78334 12 10.021 12.096 10.213 12.288C10.405 12.48 10.5007 12.7173 10.5 13C10.5 13.2833 10.404 13.521 10.212 13.713C10.02 13.905 9.78267 14.0007 9.5 14ZM14.5 14C14.2167 14 13.979 13.9043 13.787 13.713C13.595 13.5217 13.4993 13.284 13.5 13C13.5 12.7167 13.596 12.479 13.788 12.287C13.98 12.095 14.2173 11.9993 14.5 12C14.7833 12 15.021 12.096 15.213 12.288C15.405 12.48 15.5007 12.7173 15.5 13C15.5 13.2833 15.404 13.521 15.212 13.713C15.02 13.905 14.7827 14.0007 14.5 14ZM1 6V3C1 2.45 1.196 1.979 1.588 1.587C1.98 1.195 2.45067 0.999335 3 1H6V3H3V6H1ZM6 23H3C2.45 23 1.979 22.8043 1.587 22.413C1.195 22.0217 0.999335 21.5507 1 21V18H3V21H6V23ZM18 23V21H21V18H23V21C23 21.55 22.804 22.021 22.412 22.413C22.02 22.805 21.5493 23.0007 21 23H18ZM21 6V3H18V1H21C21.55 1 22.021 1.196 22.413 1.588C22.805 1.98 23.0007 2.45067 23 3V6H21Z" fill="#0A81FF"/>
</svg>
